<svg width="44" height="44" viewBox="0 0 44 44" fill="none" xmlns="http://www.w3.org/2000/svg">
<rect x="0.399918" y="0.0717163" width="43.2" height="43.2" rx="9.6" fill="#F5F5F5"/>
<path fill-rule="evenodd" clip-rule="evenodd" d="M11.2 21.6718C11.2 17.3577 11.2 15.2006 12.228 13.6469C12.6871 12.9531 13.2813 12.3589 13.9751 11.8999C15.5288 10.8718 17.6858 10.8718 22 10.8718C26.3142 10.8718 28.4713 10.8718 30.0249 11.8999C30.7187 12.3589 31.3129 12.9531 31.772 13.6469C32.8 15.2006 32.8 17.3577 32.8 21.6718C32.8 25.986 32.8 28.1431 31.772 29.6968C31.3129 30.3906 30.7187 30.9847 30.0249 31.4438C28.4713 32.4718 26.3142 32.4718 22 32.4718C17.6858 32.4718 15.5288 32.4718 13.9751 31.4438C13.2813 30.9847 12.6871 30.3906 12.228 29.6968C11.2 28.1431 11.2 25.986 11.2 21.6718ZM27.5912 21.6723C27.5912 24.7603 25.0879 27.2636 21.9999 27.2636C18.9119 27.2636 16.4086 24.7603 16.4086 21.6723C16.4086 18.5843 18.9119 16.081 21.9999 16.081C25.0879 16.081 27.5912 18.5843 27.5912 21.6723ZM21.9999 25.3719C24.0431 25.3719 25.6995 23.7155 25.6995 21.6723C25.6995 19.6291 24.0431 17.9727 21.9999 17.9727C19.9567 17.9727 18.3003 19.6291 18.3003 21.6723C18.3003 23.7155 19.9567 25.3719 21.9999 25.3719ZM27.8122 17.1139C28.5378 17.1139 29.126 16.5257 29.126 15.8001C29.126 15.0746 28.5378 14.4864 27.8122 14.4864C27.0866 14.4864 26.4984 15.0746 26.4984 15.8001C26.4984 16.5257 27.0866 17.1139 27.8122 17.1139Z" fill="#0A2430"/>
</svg>
