<svg width="189" height="55" viewBox="0 0 189 55" fill="none" xmlns="http://www.w3.org/2000/svg">
<path d="M0 20C0 8.95431 8.9543 0 20 0H169C180.046 0 189 8.95431 189 20V35C189 46.0457 180.046 55 169 55H20C8.95431 55 0 46.0457 0 35V20Z" fill="#2D5872"/>
<path d="M60.544 30.832C60.544 31.808 60.424 32.688 60.184 33.472C59.944 34.256 59.584 34.924 59.104 35.476C58.632 36.028 58.04 36.452 57.328 36.748C56.616 37.044 55.788 37.192 54.844 37.192C54.412 37.192 53.988 37.164 53.572 37.108C53.156 37.06 52.72 36.98 52.264 36.868C52.288 36.548 52.316 36.228 52.348 35.908C52.38 35.588 52.408 35.268 52.432 34.948C52.456 34.772 52.524 34.632 52.636 34.528C52.756 34.416 52.924 34.36 53.14 34.36C53.276 34.36 53.452 34.388 53.668 34.444C53.892 34.5 54.172 34.528 54.508 34.528C54.964 34.528 55.368 34.464 55.72 34.336C56.072 34.2 56.364 33.988 56.596 33.7C56.836 33.412 57.016 33.04 57.136 32.584C57.256 32.12 57.316 31.56 57.316 30.904V19.648H60.544V30.832ZM68.8261 24.496C69.7381 24.496 70.5661 24.644 71.3101 24.94C72.0621 25.236 72.7021 25.656 73.2301 26.2C73.7661 26.744 74.1781 27.408 74.4661 28.192C74.7541 28.976 74.8981 29.852 74.8981 30.82C74.8981 31.796 74.7541 32.676 74.4661 33.46C74.1781 34.244 73.7661 34.912 73.2301 35.464C72.7021 36.016 72.0621 36.44 71.3101 36.736C70.5661 37.032 69.7381 37.18 68.8261 37.18C67.9061 37.18 67.0701 37.032 66.3181 36.736C65.5661 36.44 64.9221 36.016 64.3861 35.464C63.8581 34.912 63.4461 34.244 63.1501 33.46C62.8621 32.676 62.7181 31.796 62.7181 30.82C62.7181 29.852 62.8621 28.976 63.1501 28.192C63.4461 27.408 63.8581 26.744 64.3861 26.2C64.9221 25.656 65.5661 25.236 66.3181 24.94C67.0701 24.644 67.9061 24.496 68.8261 24.496ZM68.8261 34.9C69.8501 34.9 70.6061 34.556 71.0941 33.868C71.5901 33.18 71.8381 32.172 71.8381 30.844C71.8381 29.516 71.5901 28.504 71.0941 27.808C70.6061 27.112 69.8501 26.764 68.8261 26.764C67.7861 26.764 67.0141 27.116 66.5101 27.82C66.0141 28.516 65.7661 29.524 65.7661 30.844C65.7661 32.164 66.0141 33.172 66.5101 33.868C67.0141 34.556 67.7861 34.9 68.8261 34.9ZM80.2313 24.688V37H77.2553V24.688H80.2313ZM80.6393 21.1C80.6393 21.356 80.5873 21.596 80.4833 21.82C80.3793 22.044 80.2393 22.24 80.0633 22.408C79.8953 22.576 79.6953 22.712 79.4633 22.816C79.2313 22.912 78.9833 22.96 78.7193 22.96C78.4633 22.96 78.2193 22.912 77.9873 22.816C77.7633 22.712 77.5673 22.576 77.3993 22.408C77.2313 22.24 77.0953 22.044 76.9913 21.82C76.8953 21.596 76.8473 21.356 76.8473 21.1C76.8473 20.836 76.8953 20.588 76.9913 20.356C77.0953 20.124 77.2313 19.924 77.3993 19.756C77.5673 19.588 77.7633 19.456 77.9873 19.36C78.2193 19.256 78.4633 19.204 78.7193 19.204C78.9833 19.204 79.2313 19.256 79.4633 19.36C79.6953 19.456 79.8953 19.588 80.0633 19.756C80.2393 19.924 80.3793 20.124 80.4833 20.356C80.5873 20.588 80.6393 20.836 80.6393 21.1ZM86.0251 26.2C86.2731 25.952 86.5331 25.724 86.8051 25.516C87.0851 25.3 87.3771 25.12 87.6811 24.976C87.9931 24.824 88.3251 24.708 88.6771 24.628C89.0291 24.54 89.4131 24.496 89.8291 24.496C90.5011 24.496 91.0971 24.612 91.6171 24.844C92.1371 25.068 92.5691 25.388 92.9131 25.804C93.2651 26.212 93.5291 26.704 93.7051 27.28C93.8891 27.848 93.9811 28.476 93.9811 29.164V37H91.0171V29.164C91.0171 28.412 90.8451 27.832 90.5011 27.424C90.1571 27.008 89.6331 26.8 88.9291 26.8C88.4171 26.8 87.9371 26.916 87.4891 27.148C87.0411 27.38 86.6171 27.696 86.2171 28.096V37H83.2531V24.688H85.0651C85.4491 24.688 85.7011 24.868 85.8211 25.228L86.0251 26.2ZM110.088 34.396C110.712 34.396 111.268 34.292 111.756 34.084C112.252 33.876 112.668 33.584 113.004 33.208C113.34 32.832 113.596 32.376 113.772 31.84C113.956 31.304 114.048 30.704 114.048 30.04V19.648H117.276V30.04C117.276 31.072 117.108 32.028 116.772 32.908C116.444 33.78 115.968 34.536 115.344 35.176C114.728 35.808 113.976 36.304 113.088 36.664C112.2 37.016 111.2 37.192 110.088 37.192C108.968 37.192 107.964 37.016 107.076 36.664C106.188 36.304 105.432 35.808 104.808 35.176C104.192 34.536 103.716 33.78 103.38 32.908C103.052 32.028 102.888 31.072 102.888 30.04V19.648H106.116V30.028C106.116 30.692 106.204 31.292 106.38 31.828C106.564 32.364 106.824 32.824 107.16 33.208C107.504 33.584 107.92 33.876 108.408 34.084C108.904 34.292 109.464 34.396 110.088 34.396ZM127.445 27.088C127.365 27.216 127.281 27.308 127.193 27.364C127.105 27.412 126.993 27.436 126.857 27.436C126.713 27.436 126.557 27.396 126.389 27.316C126.229 27.236 126.041 27.148 125.825 27.052C125.609 26.948 125.361 26.856 125.081 26.776C124.809 26.696 124.485 26.656 124.109 26.656C123.525 26.656 123.065 26.78 122.729 27.028C122.401 27.276 122.237 27.6 122.237 28C122.237 28.264 122.321 28.488 122.489 28.672C122.665 28.848 122.893 29.004 123.173 29.14C123.461 29.276 123.785 29.4 124.145 29.512C124.505 29.616 124.869 29.732 125.237 29.86C125.613 29.988 125.981 30.136 126.341 30.304C126.701 30.464 127.021 30.672 127.301 30.928C127.589 31.176 127.817 31.476 127.985 31.828C128.161 32.18 128.249 32.604 128.249 33.1C128.249 33.692 128.141 34.24 127.925 34.744C127.717 35.24 127.405 35.672 126.989 36.04C126.573 36.4 126.057 36.684 125.441 36.892C124.833 37.092 124.129 37.192 123.329 37.192C122.905 37.192 122.489 37.152 122.081 37.072C121.681 37 121.293 36.896 120.917 36.76C120.549 36.624 120.205 36.464 119.885 36.28C119.573 36.096 119.297 35.896 119.057 35.68L119.741 34.552C119.829 34.416 119.933 34.312 120.053 34.24C120.173 34.168 120.325 34.132 120.509 34.132C120.693 34.132 120.865 34.184 121.025 34.288C121.193 34.392 121.385 34.504 121.601 34.624C121.817 34.744 122.069 34.856 122.357 34.96C122.653 35.064 123.025 35.116 123.473 35.116C123.825 35.116 124.125 35.076 124.373 34.996C124.629 34.908 124.837 34.796 124.997 34.66C125.165 34.524 125.285 34.368 125.357 34.192C125.437 34.008 125.477 33.82 125.477 33.628C125.477 33.34 125.389 33.104 125.213 32.92C125.045 32.736 124.817 32.576 124.529 32.44C124.249 32.304 123.925 32.184 123.557 32.08C123.197 31.968 122.825 31.848 122.441 31.72C122.065 31.592 121.693 31.444 121.325 31.276C120.965 31.1 120.641 30.88 120.353 30.616C120.073 30.352 119.845 30.028 119.669 29.644C119.501 29.26 119.417 28.796 119.417 28.252C119.417 27.748 119.517 27.268 119.717 26.812C119.917 26.356 120.209 25.96 120.593 25.624C120.985 25.28 121.469 25.008 122.045 24.808C122.629 24.6 123.301 24.496 124.061 24.496C124.909 24.496 125.681 24.636 126.377 24.916C127.073 25.196 127.653 25.564 128.117 26.02L127.445 27.088Z" fill="white"/>
</svg>
