<svg width="44" height="44" viewBox="0 0 44 44" fill="none" xmlns="http://www.w3.org/2000/svg">
<rect x="0.800118" y="0.0718384" width="43.2" height="43.2" rx="9.6" fill="#F5F5F5"/>
<path d="M11.5999 13.7757C11.5999 13.0831 11.8432 12.5116 12.3297 12.0614C12.8161 11.6112 13.4486 11.3861 14.227 11.3861C14.9915 11.3861 15.61 11.6077 16.0826 12.051C16.569 12.5082 16.8123 13.1038 16.8123 13.8381C16.8123 14.503 16.576 15.0571 16.1034 15.5004C15.6169 15.9575 14.9775 16.1861 14.1853 16.1861H14.1644C13.3999 16.1861 12.7814 15.9575 12.3088 15.5004C11.8362 15.0433 11.5999 14.4684 11.5999 13.7757ZM11.871 31.9575V18.077H16.4996V31.9575H11.871ZM19.064 31.9575H23.6926V24.2069C23.6926 23.722 23.7482 23.348 23.8594 23.0848C24.054 22.6138 24.3494 22.2155 24.7455 21.89C25.1416 21.5645 25.6385 21.4017 26.2362 21.4017C27.793 21.4017 28.5714 22.4476 28.5714 24.5394V31.9575H33.1999V23.9991C33.1999 21.9489 32.7135 20.3939 31.7405 19.3342C30.7675 18.2744 29.4818 17.7445 27.8833 17.7445C26.0903 17.7445 24.6934 18.5134 23.6926 20.051V20.0926H23.6718L23.6926 20.051V18.077H19.064C19.0918 18.5203 19.1057 19.8986 19.1057 22.2121C19.1057 24.5255 19.0918 27.774 19.064 31.9575Z" fill="#0A2430"/>
</svg>
