<svg width="270" height="55" viewBox="0 0 270 55" fill="none" xmlns="http://www.w3.org/2000/svg">
<g clip-path="url(#clip0_45_225)">
<path d="M19.0875 13.0174C16.1947 9.19854 17.0406 4.48308 20.0054 1.89629C22.7819 -0.526882 27.0082 -0.649595 29.86 1.6525C33.2649 4.40128 33.6723 8.33791 31.0299 13.1041C31.5191 13.2693 32.01 13.4248 32.491 13.6015C32.8706 13.7406 33.0326 13.4362 33.2502 13.2563C35.6145 11.3092 38.2782 10.0314 41.3345 9.63867C42.7302 9.45869 43.3028 9.97081 43.3274 11.3894C43.3716 13.9222 42.5829 16.2145 41.2511 18.33C40.9402 18.8242 40.9222 19.1252 41.3509 19.5686C42.7613 21.0264 43.8968 22.6921 44.7443 24.5344C44.9668 25.0187 45.2483 25.1611 45.744 25.1283C46.3412 25.0891 46.9433 25.0972 47.5422 25.1185C48.9313 25.1692 49.8361 25.9661 49.8655 27.347C49.9228 30.0712 49.9212 32.7987 49.8721 35.5229C49.8459 36.9153 48.9378 37.807 47.5487 37.6729C46.0843 37.5322 45.4168 38.0214 44.9456 39.4383C44.2126 41.6455 42.9216 43.5942 41.3051 45.2909C40.9337 45.6803 40.8109 46.0845 40.8175 46.6031C40.8371 48.4291 40.8437 50.2551 40.8093 52.081C40.7995 52.6292 40.9729 52.7895 41.5047 52.76C42.1003 52.7257 42.704 52.7584 43.3012 52.8059C43.9851 52.8615 44.3533 53.3147 44.3304 53.9528C44.3058 54.6007 43.9017 54.9902 43.2014 54.9836C42.5747 54.9787 41.9481 54.9836 41.3214 54.9836C30.0646 54.9869 18.8077 54.9869 7.55079 54.9967C6.84233 54.9967 6.2124 54.9214 6.08315 54.0657C5.98334 53.4031 6.25331 52.9482 6.93232 52.7993C7.11557 52.7584 7.31028 52.7584 7.50007 52.7519C8.09564 52.7339 8.88591 52.9482 9.23933 52.6471C9.66146 52.2888 9.35222 51.4707 9.39149 50.8539C9.40622 50.6363 9.39313 50.4187 9.39313 50.1994C9.39313 48.8905 9.50275 47.5717 9.36531 46.2775C9.22296 44.9359 7.93202 44.2454 7.25465 43.1852C5.73628 40.8111 4.69894 38.2635 4.15573 35.5115C4.04447 34.947 3.83831 34.6558 3.22966 34.4954C1.1599 33.9539 -0.224307 31.9774 0.0292996 30.0614C0.156921 29.0944 0.822844 28.2714 1.62948 28.0914C2.15469 27.9753 2.60955 28.1324 2.94987 28.5365C3.26238 28.9079 3.26729 29.312 3.01368 29.7473C2.47538 30.6684 2.639 31.0169 3.74178 31.4112C4.82002 21.9345 10.1965 16.0541 19.0875 13.0141V13.0174Z" fill="#0B2532"/>
<path d="M10.3717 22.6152C13.5131 18.2434 17.8081 16.0378 23.1584 15.9069C25.9268 15.8398 28.7165 15.6778 31.4178 16.545C32.2162 16.8019 33.0507 17.3746 33.7902 17.2682C34.5609 17.1569 34.8668 16.0689 35.4706 15.4848C36.6764 14.3198 38.0901 13.5606 39.7492 13.1565C39.849 13.847 39.5414 14.4311 39.3156 15.0266C38.9082 16.1032 38.2603 17.0457 37.6189 17.993C37.0119 18.8896 37.0413 19.3134 37.8038 20.0612C39.8932 22.1113 41.5228 24.4559 42.5323 27.2178C42.8039 27.9606 43.3128 28.3598 44.1505 28.3075C44.7739 28.2698 45.4054 28.3418 46.0288 28.2977C46.5868 28.2584 46.7258 28.4776 46.698 28.9996C46.6555 29.8144 46.68 30.6325 46.6767 31.4489C46.4804 31.6191 46.2415 31.66 45.9912 31.6682C45.8014 31.6747 45.6083 31.6911 45.4202 31.6731C43.1082 31.4538 41.0745 31.961 39.0424 33.2536C36.0023 35.1892 32.4846 35.8241 28.8948 35.9255C26.2229 36.0008 23.5576 35.9484 20.9446 35.2841C17.6494 34.4464 14.6077 33.1391 12.2173 30.6047C10.7873 29.0879 9.90373 27.3176 9.6943 25.238C9.5994 24.2907 9.8121 23.4006 10.3733 22.6119L10.3717 22.6152Z" fill="#F5FBFD"/>
<path d="M10.3717 22.6152C8.94493 26.4209 11.3648 30.0418 14.1692 32.0428C16.864 33.9637 19.904 35.0223 23.1584 35.4559C27.8411 36.0809 32.4518 35.824 36.899 34.0766C38.3192 33.5187 39.6837 32.8315 40.9027 31.8956C41.2905 31.5978 41.6946 31.4833 42.1838 31.4865C43.6809 31.498 45.178 31.4653 46.6767 31.4505C46.6767 32.2948 46.6604 33.1407 46.6767 33.985C46.6849 34.412 46.5115 34.5691 46.0943 34.5527C45.5772 34.5315 45.0553 34.5887 44.5415 34.5413C43.5975 34.4513 43.1132 34.9291 42.9152 35.7782C42.5929 37.1592 42.0611 38.4616 41.4328 39.7263C40.0519 42.5111 38.1572 44.8786 35.4542 46.4428C33.8099 47.3951 31.9234 47.7861 30.0483 48.1248C27.7004 48.5469 25.3328 48.5273 22.9718 48.4275C20.2754 48.3146 17.6641 47.7436 15.2115 46.5475C12.9192 45.4284 11.3092 43.5991 9.85955 41.5736C8.57024 39.7705 7.81433 37.7089 7.32184 35.6146C6.69519 32.9509 6.84735 30.2234 7.70798 27.5908C8.29864 25.7828 9.07909 24.0583 10.3717 22.6168V22.6152Z" fill="#2D5871"/>
<path d="M25.0498 2.95657C27.6972 2.94839 29.7964 5.05251 29.8029 7.72274C29.8095 10.5108 27.7086 12.736 25.0777 12.7262C22.4483 12.718 20.2624 10.5271 20.2411 7.87818C20.2199 5.14577 22.3502 2.96638 25.0498 2.95657Z" fill="#F5FBFC"/>
<path d="M25.0826 52.7748C23.6379 52.7748 22.1931 52.7421 20.75 52.7879C19.9957 52.8124 20.2068 52.3314 20.1659 51.9322C20.1054 51.3481 20.4899 51.5133 20.7909 51.5411C23.6722 51.8029 26.5552 51.8847 29.4365 51.5362C29.7735 51.4953 30.104 51.402 30.0386 51.9469C29.9944 52.3167 30.2006 52.7863 29.4954 52.7683C28.0244 52.7323 26.5535 52.7568 25.081 52.7568C25.081 52.7617 25.081 52.7683 25.081 52.7732L25.0826 52.7748Z" fill="#F5FCFD"/>
<path d="M12.646 48.2524C13.9354 49.1867 15.2083 49.6955 16.478 50.206C17.0752 50.4465 16.8985 50.9668 16.8723 51.3971C16.8428 51.8536 16.4387 51.7129 16.1704 51.7162C15.1952 51.7309 14.22 51.7113 13.2433 51.7244C12.8522 51.7293 12.6313 51.6262 12.6395 51.1812C12.6575 50.2665 12.6444 49.3519 12.6444 48.2491L12.646 48.2524Z" fill="#31576B"/>
<path d="M37.5126 48.4602C37.5126 49.4763 37.5028 50.3402 37.5175 51.2041C37.5241 51.5886 37.3637 51.7309 36.9858 51.726C35.9566 51.7129 34.9274 51.7195 33.8967 51.726C33.558 51.726 33.27 51.6311 33.2896 51.2466C33.306 50.9096 33.0508 50.4531 33.5645 50.2665C34.8767 49.7871 36.1251 49.1605 37.5126 48.4618V48.4602Z" fill="#315468"/>
<path d="M24.9157 21.6433C23.5822 21.6433 22.2471 21.6499 20.9136 21.6417C19.9793 21.6351 19.3625 21.0232 19.3641 20.1331C19.3658 19.2807 19.9597 18.6491 20.8563 18.6442C23.6329 18.6279 26.4095 18.6311 29.1861 18.6491C30.0794 18.6557 30.6685 19.2971 30.657 20.1593C30.6456 21.0216 30.0467 21.6351 29.1616 21.645C27.7463 21.6597 26.331 21.6482 24.914 21.6482V21.6433H24.9157Z" fill="#0B2330"/>
<path d="M35.433 29.3104C34.2304 29.3055 33.2454 28.2682 33.2634 27.0247C33.2798 25.8696 34.2599 24.9517 35.4608 24.9631C36.6372 24.9746 37.5682 25.9252 37.5666 27.1114C37.5633 28.3762 36.6519 29.3137 35.433 29.3104Z" fill="#0C2733"/>
<path d="M24.6898 6.78194C25.2396 7.21716 25.7566 7.28097 26.2229 7.44295C26.8447 7.65893 27.2799 8.02379 27.3208 8.70608C27.3617 9.39 27.0525 9.91848 26.4536 10.249C26.0855 10.4519 25.7125 10.555 25.7174 11.1423C25.7206 11.5301 25.2347 11.3158 24.9713 11.3534C24.7406 11.3861 24.3953 11.409 24.4313 11.0524C24.4951 10.4355 24.0583 10.4535 23.6787 10.339C23.2549 10.2114 22.7853 10.1786 22.8884 9.46036C22.9784 8.83697 23.16 8.68972 23.754 8.85661C24.2628 9.00059 24.8011 9.1184 25.3836 8.93514C25.2756 8.54901 24.9533 8.55719 24.6833 8.49174C24.2579 8.3903 23.8423 8.26595 23.4856 8.00089C22.517 7.27934 22.6594 5.90331 23.7654 5.42064C24.1106 5.27011 24.4591 5.23575 24.4362 4.69091C24.4182 4.23605 24.8682 4.3015 25.184 4.29495C25.467 4.28841 25.7697 4.30641 25.7223 4.70891C25.6683 5.16213 25.9186 5.2243 26.29 5.28811C27.0459 5.41737 27.3192 6.17819 26.8594 6.75412C26.7138 6.93737 26.5714 6.80484 26.4242 6.7803C25.9137 6.69686 25.4016 6.67395 24.6931 6.78194H24.6898Z" fill="#0E222D"/>
</g>
<path d="M88.457 37.8125C88.457 37.1484 88.3529 36.5625 88.1445 36.0547C87.9492 35.5339 87.5977 35.0651 87.0898 34.6484C86.5951 34.2318 85.9049 33.8346 85.0195 33.457C84.1471 33.0794 83.0404 32.6953 81.6992 32.3047C80.293 31.888 79.0234 31.4258 77.8906 30.918C76.7578 30.3971 75.7878 29.8047 74.9805 29.1406C74.1732 28.4766 73.5547 27.7148 73.125 26.8555C72.6953 25.9961 72.4805 25.013 72.4805 23.9062C72.4805 22.7995 72.7083 21.7773 73.1641 20.8398C73.6198 19.9023 74.2708 19.0885 75.1172 18.3984C75.9766 17.6953 76.9987 17.1484 78.1836 16.7578C79.3685 16.3672 80.6901 16.1719 82.1484 16.1719C84.2839 16.1719 86.0938 16.582 87.5781 17.4023C89.0755 18.2096 90.2148 19.2708 90.9961 20.5859C91.7773 21.888 92.168 23.2812 92.168 24.7656H88.418C88.418 23.6979 88.1901 22.7539 87.7344 21.9336C87.2786 21.1003 86.5885 20.4492 85.6641 19.9805C84.7396 19.4987 83.5677 19.2578 82.1484 19.2578C80.8073 19.2578 79.7005 19.4596 78.8281 19.8633C77.9557 20.2669 77.3047 20.8138 76.875 21.5039C76.4583 22.194 76.25 22.9818 76.25 23.8672C76.25 24.4661 76.3737 25.013 76.6211 25.5078C76.8815 25.9896 77.2786 26.4388 77.8125 26.8555C78.3594 27.2721 79.0495 27.6562 79.8828 28.0078C80.7292 28.3594 81.7383 28.6979 82.9102 29.0234C84.5247 29.4792 85.918 29.987 87.0898 30.5469C88.2617 31.1068 89.2253 31.7383 89.9805 32.4414C90.7487 33.1315 91.3151 33.9193 91.6797 34.8047C92.0573 35.6771 92.2461 36.6667 92.2461 37.7734C92.2461 38.9323 92.0117 39.9805 91.543 40.918C91.0742 41.8555 90.4036 42.6562 89.5312 43.3203C88.6589 43.9844 87.6107 44.4987 86.3867 44.8633C85.1758 45.2148 83.8216 45.3906 82.3242 45.3906C81.0091 45.3906 79.7135 45.2083 78.4375 44.8438C77.1745 44.4792 76.0221 43.9323 74.9805 43.2031C73.9518 42.474 73.125 41.5755 72.5 40.5078C71.888 39.4271 71.582 38.1771 71.582 36.7578H75.332C75.332 37.7344 75.5208 38.5742 75.8984 39.2773C76.276 39.9674 76.7904 40.5404 77.4414 40.9961C78.1055 41.4518 78.8542 41.7904 79.6875 42.0117C80.5339 42.2201 81.4128 42.3242 82.3242 42.3242C83.6393 42.3242 84.7526 42.1419 85.6641 41.7773C86.5755 41.4128 87.2656 40.8919 87.7344 40.2148C88.2161 39.5378 88.457 38.737 88.457 37.8125ZM100.117 27.9297V53.125H96.4844V23.8672H99.8047L100.117 27.9297ZM114.355 34.2578V34.668C114.355 36.2044 114.173 37.6302 113.809 38.9453C113.444 40.2474 112.91 41.3802 112.207 42.3438C111.517 43.3073 110.664 44.056 109.648 44.5898C108.633 45.1237 107.467 45.3906 106.152 45.3906C104.811 45.3906 103.626 45.1693 102.598 44.7266C101.569 44.2839 100.697 43.6393 99.9805 42.793C99.2643 41.9466 98.6914 40.931 98.2617 39.7461C97.8451 38.5612 97.5586 37.2266 97.4023 35.7422V33.5547C97.5586 31.9922 97.8516 30.5924 98.2812 29.3555C98.7109 28.1185 99.2773 27.0638 99.9805 26.1914C100.697 25.306 101.562 24.6354 102.578 24.1797C103.594 23.7109 104.766 23.4766 106.094 23.4766C107.422 23.4766 108.6 23.737 109.629 24.2578C110.658 24.7656 111.523 25.4948 112.227 26.4453C112.93 27.3958 113.457 28.5352 113.809 29.8633C114.173 31.1784 114.355 32.6432 114.355 34.2578ZM110.723 34.668V34.2578C110.723 33.2031 110.612 32.2135 110.391 31.2891C110.169 30.3516 109.824 29.5312 109.355 28.8281C108.9 28.112 108.314 27.5521 107.598 27.1484C106.882 26.7318 106.029 26.5234 105.039 26.5234C104.128 26.5234 103.333 26.6797 102.656 26.9922C101.992 27.3047 101.426 27.7279 100.957 28.2617C100.488 28.7826 100.104 29.3815 99.8047 30.0586C99.5182 30.7227 99.3034 31.4128 99.1602 32.1289V37.1875C99.4206 38.099 99.7852 38.9583 100.254 39.7656C100.723 40.5599 101.348 41.2044 102.129 41.6992C102.91 42.181 103.893 42.4219 105.078 42.4219C106.055 42.4219 106.895 42.2201 107.598 41.8164C108.314 41.3997 108.9 40.8333 109.355 40.1172C109.824 39.401 110.169 38.5807 110.391 37.6562C110.612 36.7188 110.723 35.7227 110.723 34.668ZM127.734 45.3906C126.263 45.3906 124.928 45.1432 123.73 44.6484C122.546 44.1406 121.523 43.431 120.664 42.5195C119.818 41.6081 119.167 40.5273 118.711 39.2773C118.255 38.0273 118.027 36.6602 118.027 35.1758V34.3555C118.027 32.6367 118.281 31.1068 118.789 29.7656C119.297 28.4115 119.987 27.2656 120.859 26.3281C121.732 25.3906 122.721 24.681 123.828 24.1992C124.935 23.7174 126.081 23.4766 127.266 23.4766C128.776 23.4766 130.078 23.737 131.172 24.2578C132.279 24.7786 133.184 25.5078 133.887 26.4453C134.59 27.3698 135.111 28.4635 135.449 29.7266C135.788 30.9766 135.957 32.3438 135.957 33.8281V35.4492H120.176V32.5H132.344V32.2266C132.292 31.2891 132.096 30.3776 131.758 29.4922C131.432 28.6068 130.911 27.8776 130.195 27.3047C129.479 26.7318 128.503 26.4453 127.266 26.4453C126.445 26.4453 125.69 26.6211 125 26.9727C124.31 27.3112 123.717 27.819 123.223 28.4961C122.728 29.1732 122.344 30 122.07 30.9766C121.797 31.9531 121.66 33.0794 121.66 34.3555V35.1758C121.66 36.1784 121.797 37.1224 122.07 38.0078C122.357 38.8802 122.767 39.6484 123.301 40.3125C123.848 40.9766 124.505 41.4974 125.273 41.875C126.055 42.2526 126.94 42.4414 127.93 42.4414C129.206 42.4414 130.286 42.181 131.172 41.6602C132.057 41.1393 132.832 40.4427 133.496 39.5703L135.684 41.3086C135.228 41.9987 134.648 42.6562 133.945 43.2812C133.242 43.9062 132.376 44.4141 131.348 44.8047C130.332 45.1953 129.128 45.3906 127.734 45.3906ZM143.789 28.3789V45H140.176V23.8672H143.594L143.789 28.3789ZM142.93 33.6328L141.426 33.5742C141.439 32.1289 141.654 30.7943 142.07 29.5703C142.487 28.3333 143.073 27.2591 143.828 26.3477C144.583 25.4362 145.482 24.7331 146.523 24.2383C147.578 23.7305 148.743 23.4766 150.02 23.4766C151.061 23.4766 151.999 23.6198 152.832 23.9062C153.665 24.1797 154.375 24.6224 154.961 25.2344C155.56 25.8464 156.016 26.6406 156.328 27.6172C156.641 28.5807 156.797 29.7591 156.797 31.1523V45H153.164V31.1133C153.164 30.0065 153.001 29.1211 152.676 28.457C152.35 27.7799 151.875 27.2917 151.25 26.9922C150.625 26.6797 149.857 26.5234 148.945 26.5234C148.047 26.5234 147.227 26.7122 146.484 27.0898C145.755 27.4674 145.124 27.9883 144.59 28.6523C144.069 29.3164 143.659 30.0781 143.359 30.9375C143.073 31.7839 142.93 32.6823 142.93 33.6328ZM175.605 40.8984V15H179.238V45H175.918L175.605 40.8984ZM161.387 34.668V34.2578C161.387 32.6432 161.582 31.1784 161.973 29.8633C162.376 28.5352 162.943 27.3958 163.672 26.4453C164.414 25.4948 165.293 24.7656 166.309 24.2578C167.337 23.737 168.483 23.4766 169.746 23.4766C171.074 23.4766 172.233 23.7109 173.223 24.1797C174.225 24.6354 175.072 25.306 175.762 26.1914C176.465 27.0638 177.018 28.1185 177.422 29.3555C177.826 30.5924 178.105 31.9922 178.262 33.5547V35.3516C178.118 36.901 177.839 38.2943 177.422 39.5312C177.018 40.7682 176.465 41.8229 175.762 42.6953C175.072 43.5677 174.225 44.2383 173.223 44.707C172.22 45.1628 171.048 45.3906 169.707 45.3906C168.47 45.3906 167.337 45.1237 166.309 44.5898C165.293 44.056 164.414 43.3073 163.672 42.3438C162.943 41.3802 162.376 40.2474 161.973 38.9453C161.582 37.6302 161.387 36.2044 161.387 34.668ZM165.02 34.2578V34.668C165.02 35.7227 165.124 36.7122 165.332 37.6367C165.553 38.5612 165.892 39.375 166.348 40.0781C166.803 40.7812 167.383 41.3346 168.086 41.7383C168.789 42.1289 169.629 42.3242 170.605 42.3242C171.803 42.3242 172.786 42.0703 173.555 41.5625C174.336 41.0547 174.961 40.3841 175.43 39.5508C175.898 38.7174 176.263 37.8125 176.523 36.8359V32.1289C176.367 31.4128 176.139 30.7227 175.84 30.0586C175.553 29.3815 175.176 28.7826 174.707 28.2617C174.251 27.7279 173.685 27.3047 173.008 26.9922C172.344 26.6797 171.556 26.5234 170.645 26.5234C169.655 26.5234 168.802 26.7318 168.086 27.1484C167.383 27.5521 166.803 28.112 166.348 28.8281C165.892 29.5312 165.553 30.3516 165.332 31.2891C165.124 32.2135 165.02 33.2031 165.02 34.2578Z" fill="black"/>
<path d="M192.891 36.4062L198.535 16.5625H201.27L199.688 24.2773L193.613 45H190.898L192.891 36.4062ZM187.051 16.5625L191.543 36.0156L192.891 45H190.195L183.301 16.5625H187.051ZM208.574 35.9961L212.969 16.5625H216.738L209.863 45H207.168L208.574 35.9961ZM201.68 16.5625L207.168 36.4062L209.16 45H206.445L200.586 24.2773L198.984 16.5625H201.68ZM224.297 23.8672V45H220.664V23.8672H224.297ZM220.391 18.2617C220.391 17.6758 220.566 17.181 220.918 16.7773C221.283 16.3737 221.816 16.1719 222.52 16.1719C223.21 16.1719 223.737 16.3737 224.102 16.7773C224.479 17.181 224.668 17.6758 224.668 18.2617C224.668 18.8216 224.479 19.3034 224.102 19.707C223.737 20.0977 223.21 20.293 222.52 20.293C221.816 20.293 221.283 20.0977 220.918 19.707C220.566 19.3034 220.391 18.8216 220.391 18.2617ZM242.402 39.3945C242.402 38.8737 242.285 38.3919 242.051 37.9492C241.829 37.4935 241.367 37.0833 240.664 36.7188C239.974 36.3411 238.932 36.0156 237.539 35.7422C236.367 35.4948 235.306 35.2018 234.355 34.8633C233.418 34.5247 232.617 34.1146 231.953 33.6328C231.302 33.151 230.801 32.5846 230.449 31.9336C230.098 31.2826 229.922 30.5208 229.922 29.6484C229.922 28.8151 230.104 28.0273 230.469 27.2852C230.846 26.543 231.374 25.8854 232.051 25.3125C232.741 24.7396 233.568 24.2904 234.531 23.9648C235.495 23.6393 236.569 23.4766 237.754 23.4766C239.447 23.4766 240.892 23.776 242.09 24.375C243.288 24.974 244.206 25.7747 244.844 26.7773C245.482 27.7669 245.801 28.8672 245.801 30.0781H242.188C242.188 29.4922 242.012 28.9258 241.66 28.3789C241.322 27.819 240.82 27.3568 240.156 26.9922C239.505 26.6276 238.704 26.4453 237.754 26.4453C236.751 26.4453 235.938 26.6016 235.312 26.9141C234.701 27.2135 234.251 27.5977 233.965 28.0664C233.691 28.5352 233.555 29.0299 233.555 29.5508C233.555 29.9414 233.62 30.293 233.75 30.6055C233.893 30.9049 234.141 31.1849 234.492 31.4453C234.844 31.6927 235.339 31.9271 235.977 32.1484C236.615 32.3698 237.428 32.5911 238.418 32.8125C240.15 33.2031 241.576 33.6719 242.695 34.2188C243.815 34.7656 244.648 35.4362 245.195 36.2305C245.742 37.0247 246.016 37.9883 246.016 39.1211C246.016 40.0456 245.82 40.8919 245.43 41.6602C245.052 42.4284 244.499 43.0924 243.77 43.6523C243.053 44.1992 242.194 44.6289 241.191 44.9414C240.202 45.2409 239.089 45.3906 237.852 45.3906C235.99 45.3906 234.414 45.0586 233.125 44.3945C231.836 43.7305 230.859 42.8711 230.195 41.8164C229.531 40.7617 229.199 39.6484 229.199 38.4766H232.832C232.884 39.4661 233.171 40.2539 233.691 40.8398C234.212 41.4128 234.85 41.8229 235.605 42.0703C236.361 42.3047 237.109 42.4219 237.852 42.4219C238.841 42.4219 239.668 42.2917 240.332 42.0312C241.009 41.7708 241.523 41.4128 241.875 40.957C242.227 40.5013 242.402 39.9805 242.402 39.3945ZM259.531 45.3906C258.06 45.3906 256.725 45.1432 255.527 44.6484C254.342 44.1406 253.32 43.431 252.461 42.5195C251.615 41.6081 250.964 40.5273 250.508 39.2773C250.052 38.0273 249.824 36.6602 249.824 35.1758V34.3555C249.824 32.6367 250.078 31.1068 250.586 29.7656C251.094 28.4115 251.784 27.2656 252.656 26.3281C253.529 25.3906 254.518 24.681 255.625 24.1992C256.732 23.7174 257.878 23.4766 259.062 23.4766C260.573 23.4766 261.875 23.737 262.969 24.2578C264.076 24.7786 264.98 25.5078 265.684 26.4453C266.387 27.3698 266.908 28.4635 267.246 29.7266C267.585 30.9766 267.754 32.3438 267.754 33.8281V35.4492H251.973V32.5H264.141V32.2266C264.089 31.2891 263.893 30.3776 263.555 29.4922C263.229 28.6068 262.708 27.8776 261.992 27.3047C261.276 26.7318 260.299 26.4453 259.062 26.4453C258.242 26.4453 257.487 26.6211 256.797 26.9727C256.107 27.3112 255.514 27.819 255.02 28.4961C254.525 29.1732 254.141 30 253.867 30.9766C253.594 31.9531 253.457 33.0794 253.457 34.3555V35.1758C253.457 36.1784 253.594 37.1224 253.867 38.0078C254.154 38.8802 254.564 39.6484 255.098 40.3125C255.645 40.9766 256.302 41.4974 257.07 41.875C257.852 42.2526 258.737 42.4414 259.727 42.4414C261.003 42.4414 262.083 42.181 262.969 41.6602C263.854 41.1393 264.629 40.4427 265.293 39.5703L267.48 41.3086C267.025 41.9987 266.445 42.6562 265.742 43.2812C265.039 43.9062 264.173 44.4141 263.145 44.8047C262.129 45.1953 260.924 45.3906 259.531 45.3906Z" fill="#2D5871"/>
<defs>
<clipPath id="clip0_45_225">
<rect width="49.9115" height="55" fill="white"/>
</clipPath>
</defs>
</svg>
