<svg width="270" height="55" viewBox="0 0 270 55" fill="none" xmlns="http://www.w3.org/2000/svg">
<g clip-path="url(#clip0_57_1929)">
<path d="M19.0876 13.0174C16.1948 9.19854 17.0407 4.48308 20.0055 1.89629C22.7821 -0.526882 27.0083 -0.649595 29.8602 1.6525C33.265 4.40128 33.6724 8.33791 31.03 13.1041C31.5192 13.2693 32.0101 13.4248 32.4911 13.6015C32.8707 13.7406 33.0327 13.4362 33.2503 13.2563C35.6146 11.3092 38.2783 10.0314 41.3346 9.63867C42.7303 9.45869 43.303 9.97081 43.3275 11.3894C43.3717 13.9222 42.583 16.2145 41.2512 18.33C40.9403 18.8242 40.9223 19.1252 41.351 19.5686C42.7614 21.0264 43.8969 22.6921 44.7444 24.5344C44.967 25.0187 45.2484 25.1611 45.7441 25.1283C46.3413 25.0891 46.9435 25.0972 47.5423 25.1185C48.9314 25.1692 49.8362 25.9661 49.8657 27.347C49.9229 30.0712 49.9213 32.7987 49.8722 35.5229C49.846 36.9153 48.9379 37.807 47.5488 37.6729C46.0845 37.5322 45.4169 38.0214 44.9457 39.4383C44.2127 41.6455 42.9217 43.5942 41.3052 45.2909C40.9338 45.6803 40.8111 46.0845 40.8176 46.6031C40.8372 48.4291 40.8438 50.2551 40.8094 52.081C40.7996 52.6292 40.9731 52.7895 41.5048 52.76C42.1004 52.7257 42.7041 52.7584 43.3013 52.8059C43.9852 52.8615 44.3534 53.3147 44.3305 53.9528C44.3059 54.6007 43.9018 54.9902 43.2015 54.9836C42.5749 54.9787 41.9482 54.9836 41.3216 54.9836C30.0647 54.9869 18.8078 54.9869 7.55092 54.9967C6.84245 54.9967 6.21252 54.9214 6.08327 54.0657C5.98346 53.4031 6.25343 52.9482 6.93244 52.7993C7.11569 52.7584 7.3104 52.7584 7.50019 52.7519C8.09576 52.7339 8.88603 52.9482 9.23945 52.6471C9.66158 52.2888 9.35234 51.4707 9.39161 50.8539C9.40634 50.6363 9.39325 50.4187 9.39325 50.1994C9.39325 48.8905 9.50287 47.5717 9.36543 46.2775C9.22309 44.9359 7.93214 44.2454 7.25477 43.1852C5.7364 40.8111 4.69906 38.2635 4.15585 35.5115C4.04459 34.947 3.83844 34.6558 3.22978 34.4954C1.16002 33.9539 -0.224185 31.9774 0.0294216 30.0614C0.157043 29.0944 0.822966 28.2714 1.6296 28.0914C2.15481 27.9753 2.60967 28.1324 2.94999 28.5365C3.2625 28.9079 3.26741 29.312 3.0138 29.7473C2.4755 30.6684 2.63912 31.0169 3.7419 31.4112C4.82014 21.9345 10.1966 16.0541 19.0876 13.0141V13.0174Z" fill="#0B2532"/>
<path d="M10.3715 22.6152C13.513 18.2434 17.808 16.0378 23.1583 15.9069C25.9267 15.8398 28.7163 15.6778 31.4177 16.545C32.2161 16.8019 33.0506 17.3746 33.7901 17.2682C34.5608 17.1569 34.8667 16.0689 35.4705 15.4848C36.6763 14.3198 38.09 13.5606 39.7491 13.1565C39.8489 13.847 39.5413 14.4311 39.3155 15.0266C38.9081 16.1032 38.2601 17.0457 37.6188 17.993C37.0117 18.8896 37.0412 19.3134 37.8036 20.0612C39.893 22.1113 41.5227 24.4559 42.5322 27.2178C42.8038 27.9606 43.3126 28.3598 44.1504 28.3075C44.7738 28.2698 45.4053 28.3418 46.0287 28.2977C46.5866 28.2584 46.7257 28.4776 46.6979 28.9996C46.6553 29.8144 46.6799 30.6325 46.6766 31.4489C46.4803 31.6191 46.2414 31.66 45.9911 31.6682C45.8013 31.6747 45.6082 31.6911 45.42 31.6731C43.1081 31.4538 41.0744 31.961 39.0422 33.2536C36.0022 35.1892 32.4844 35.8241 28.8947 35.9255C26.2228 36.0008 23.5575 35.9484 20.9445 35.2841C17.6493 34.4464 14.6076 33.1391 12.2172 30.6047C10.7871 29.0879 9.9036 27.3176 9.69417 25.238C9.59928 24.2907 9.81198 23.4006 10.3732 22.6119L10.3715 22.6152Z" fill="#F5FBFD"/>
<path d="M10.3717 22.6152C8.94493 26.421 11.3648 30.0418 14.1692 32.0429C16.864 33.9637 19.904 35.0223 23.1584 35.4559C27.8411 36.0809 32.4518 35.8241 36.899 34.0766C38.3192 33.5187 39.6837 32.8315 40.9027 31.8956C41.2905 31.5978 41.6946 31.4833 42.1838 31.4866C43.6809 31.498 45.178 31.4653 46.6767 31.4506C46.6767 32.2948 46.6604 33.1407 46.6767 33.985C46.6849 34.4121 46.5115 34.5691 46.0943 34.5528C45.5772 34.5315 45.0553 34.5888 44.5415 34.5413C43.5975 34.4513 43.1132 34.9291 42.9152 35.7783C42.5929 37.1592 42.0611 38.4616 41.4328 39.7263C40.0519 42.5111 38.1572 44.8787 35.4542 46.4428C33.8099 47.3951 31.9234 47.7861 30.0483 48.1248C27.7004 48.547 25.3328 48.5273 22.9718 48.4275C20.2754 48.3146 17.6641 47.7436 15.2115 46.5476C12.9192 45.4284 11.3092 43.5992 9.85955 41.5736C8.57024 39.7705 7.81433 37.7089 7.32184 35.6146C6.69519 32.9509 6.84735 30.2234 7.70798 27.5908C8.29864 25.7829 9.07909 24.0583 10.3717 22.6169V22.6152Z" fill="#2D5871"/>
<path d="M25.0496 2.95657C27.6969 2.94839 29.7961 5.05251 29.8027 7.72274C29.8092 10.5108 27.7084 12.736 25.0774 12.7262C22.4481 12.718 20.2622 10.5271 20.2409 7.87818C20.2196 5.14577 22.3499 2.96638 25.0496 2.95657Z" fill="#F5FBFC"/>
<path d="M25.0827 52.7749C23.638 52.7749 22.1932 52.7421 20.7501 52.788C19.9959 52.8125 20.2069 52.3315 20.166 51.9322C20.1055 51.3481 20.49 51.5134 20.791 51.5412C23.6723 51.803 26.5553 51.8848 29.4366 51.5363C29.7736 51.4954 30.1041 51.4021 30.0387 51.947C29.9945 52.3167 30.2007 52.7863 29.4955 52.7683C28.0246 52.7323 26.5536 52.7569 25.0811 52.7569C25.0811 52.7618 25.0811 52.7683 25.0811 52.7732L25.0827 52.7749Z" fill="#F5FCFD"/>
<path d="M12.6459 48.2523C13.9352 49.1865 15.2082 49.6954 16.4778 50.2059C17.075 50.4464 16.8983 50.9667 16.8722 51.397C16.8427 51.8535 16.4386 51.7128 16.1702 51.7161C15.1951 51.7308 14.2199 51.7112 13.2431 51.7243C12.8521 51.7292 12.6312 51.6261 12.6394 51.181C12.6574 50.2664 12.6443 49.3518 12.6443 48.249L12.6459 48.2523Z" fill="#31576B"/>
<path d="M37.5124 48.4602C37.5124 49.4763 37.5025 50.3402 37.5173 51.2041C37.5238 51.5886 37.3635 51.7309 36.9855 51.726C35.9564 51.7129 34.9272 51.7195 33.8964 51.726C33.5577 51.726 33.2698 51.6311 33.2894 51.2466C33.3058 50.9096 33.0505 50.4531 33.5643 50.2665C34.8765 49.7871 36.1249 49.1605 37.5124 48.4618V48.4602Z" fill="#315468"/>
<path d="M24.9158 21.6433C23.5823 21.6433 22.2472 21.6498 20.9137 21.6416C19.9795 21.6351 19.3626 21.0232 19.3643 20.1331C19.3659 19.2806 19.9598 18.6491 20.8565 18.6442C23.633 18.6278 26.4096 18.6311 29.1862 18.6491C30.0796 18.6556 30.6686 19.297 30.6571 20.1593C30.6457 21.0215 30.0468 21.6351 29.1617 21.6449C27.7464 21.6596 26.3311 21.6482 24.9142 21.6482V21.6433H24.9158Z" fill="#0B2330"/>
<path d="M35.433 29.3103C34.2304 29.3054 33.2454 28.2681 33.2634 27.0246C33.2798 25.8694 34.2599 24.9515 35.4608 24.963C36.6372 24.9744 37.5682 25.9251 37.5666 27.1113C37.5633 28.3761 36.6519 29.3136 35.433 29.3103Z" fill="#0C2733"/>
<path d="M24.6897 6.78185C25.2395 7.21707 25.7565 7.28088 26.2228 7.44286C26.8446 7.65884 27.2798 8.0237 27.3207 8.70599C27.3616 9.38991 27.0524 9.91839 26.4535 10.2489C26.0854 10.4518 25.7123 10.5549 25.7172 11.1423C25.7205 11.53 25.2346 11.3157 24.9711 11.3533C24.7404 11.386 24.3952 11.4089 24.4312 11.0523C24.495 10.4354 24.0582 10.4534 23.6786 10.3389C23.2548 10.2113 22.7852 10.1785 22.8883 9.46026C22.9783 8.83688 23.1599 8.68963 23.7538 8.85652C24.2627 9.0005 24.801 9.1183 25.3835 8.93505C25.2755 8.54892 24.9531 8.5571 24.6832 8.49165C24.2578 8.39021 23.8422 8.26586 23.4855 8.0008C22.5169 7.27924 22.6592 5.90322 23.7653 5.42055C24.1105 5.27002 24.459 5.23566 24.4361 4.69082C24.4181 4.23596 24.8681 4.30141 25.1838 4.29486C25.4669 4.28832 25.7696 4.30632 25.7221 4.70881C25.6682 5.16203 25.9185 5.22421 26.2899 5.28802C27.0458 5.41728 27.3191 6.1781 26.8593 6.75403C26.7137 6.93728 26.5713 6.80475 26.4241 6.78021C25.9136 6.69677 25.4015 6.67386 24.693 6.78185H24.6897Z" fill="#0E222D"/>
</g>
<path d="M88.457 37.8125C88.457 37.1484 88.3529 36.5625 88.1445 36.0547C87.9492 35.5339 87.5977 35.0651 87.0898 34.6484C86.5951 34.2318 85.9049 33.8346 85.0195 33.457C84.1471 33.0794 83.0404 32.6953 81.6992 32.3047C80.293 31.888 79.0234 31.4258 77.8906 30.918C76.7578 30.3971 75.7878 29.8047 74.9805 29.1406C74.1732 28.4766 73.5547 27.7148 73.125 26.8555C72.6953 25.9961 72.4805 25.013 72.4805 23.9062C72.4805 22.7995 72.7083 21.7773 73.1641 20.8398C73.6198 19.9023 74.2708 19.0885 75.1172 18.3984C75.9766 17.6953 76.9987 17.1484 78.1836 16.7578C79.3685 16.3672 80.6901 16.1719 82.1484 16.1719C84.2839 16.1719 86.0938 16.582 87.5781 17.4023C89.0755 18.2096 90.2148 19.2708 90.9961 20.5859C91.7773 21.888 92.168 23.2812 92.168 24.7656H88.418C88.418 23.6979 88.1901 22.7539 87.7344 21.9336C87.2786 21.1003 86.5885 20.4492 85.6641 19.9805C84.7396 19.4987 83.5677 19.2578 82.1484 19.2578C80.8073 19.2578 79.7005 19.4596 78.8281 19.8633C77.9557 20.2669 77.3047 20.8138 76.875 21.5039C76.4583 22.194 76.25 22.9818 76.25 23.8672C76.25 24.4661 76.3737 25.013 76.6211 25.5078C76.8815 25.9896 77.2786 26.4388 77.8125 26.8555C78.3594 27.2721 79.0495 27.6562 79.8828 28.0078C80.7292 28.3594 81.7383 28.6979 82.9102 29.0234C84.5247 29.4792 85.918 29.987 87.0898 30.5469C88.2617 31.1068 89.2253 31.7383 89.9805 32.4414C90.7487 33.1315 91.3151 33.9193 91.6797 34.8047C92.0573 35.6771 92.2461 36.6667 92.2461 37.7734C92.2461 38.9323 92.0117 39.9805 91.543 40.918C91.0742 41.8555 90.4036 42.6562 89.5312 43.3203C88.6589 43.9844 87.6107 44.4987 86.3867 44.8633C85.1758 45.2148 83.8216 45.3906 82.3242 45.3906C81.0091 45.3906 79.7135 45.2083 78.4375 44.8438C77.1745 44.4792 76.0221 43.9323 74.9805 43.2031C73.9518 42.474 73.125 41.5755 72.5 40.5078C71.888 39.4271 71.582 38.1771 71.582 36.7578H75.332C75.332 37.7344 75.5208 38.5742 75.8984 39.2773C76.276 39.9674 76.7904 40.5404 77.4414 40.9961C78.1055 41.4518 78.8542 41.7904 79.6875 42.0117C80.5339 42.2201 81.4128 42.3242 82.3242 42.3242C83.6393 42.3242 84.7526 42.1419 85.6641 41.7773C86.5755 41.4128 87.2656 40.8919 87.7344 40.2148C88.2161 39.5378 88.457 38.737 88.457 37.8125ZM100.117 27.9297V53.125H96.4844V23.8672H99.8047L100.117 27.9297ZM114.355 34.2578V34.668C114.355 36.2044 114.173 37.6302 113.809 38.9453C113.444 40.2474 112.91 41.3802 112.207 42.3438C111.517 43.3073 110.664 44.056 109.648 44.5898C108.633 45.1237 107.467 45.3906 106.152 45.3906C104.811 45.3906 103.626 45.1693 102.598 44.7266C101.569 44.2839 100.697 43.6393 99.9805 42.793C99.2643 41.9466 98.6914 40.931 98.2617 39.7461C97.8451 38.5612 97.5586 37.2266 97.4023 35.7422V33.5547C97.5586 31.9922 97.8516 30.5924 98.2812 29.3555C98.7109 28.1185 99.2773 27.0638 99.9805 26.1914C100.697 25.306 101.562 24.6354 102.578 24.1797C103.594 23.7109 104.766 23.4766 106.094 23.4766C107.422 23.4766 108.6 23.737 109.629 24.2578C110.658 24.7656 111.523 25.4948 112.227 26.4453C112.93 27.3958 113.457 28.5352 113.809 29.8633C114.173 31.1784 114.355 32.6432 114.355 34.2578ZM110.723 34.668V34.2578C110.723 33.2031 110.612 32.2135 110.391 31.2891C110.169 30.3516 109.824 29.5312 109.355 28.8281C108.9 28.112 108.314 27.5521 107.598 27.1484C106.882 26.7318 106.029 26.5234 105.039 26.5234C104.128 26.5234 103.333 26.6797 102.656 26.9922C101.992 27.3047 101.426 27.7279 100.957 28.2617C100.488 28.7826 100.104 29.3815 99.8047 30.0586C99.5182 30.7227 99.3034 31.4128 99.1602 32.1289V37.1875C99.4206 38.099 99.7852 38.9583 100.254 39.7656C100.723 40.5599 101.348 41.2044 102.129 41.6992C102.91 42.181 103.893 42.4219 105.078 42.4219C106.055 42.4219 106.895 42.2201 107.598 41.8164C108.314 41.3997 108.9 40.8333 109.355 40.1172C109.824 39.401 110.169 38.5807 110.391 37.6562C110.612 36.7188 110.723 35.7227 110.723 34.668ZM127.734 45.3906C126.263 45.3906 124.928 45.1432 123.73 44.6484C122.546 44.1406 121.523 43.431 120.664 42.5195C119.818 41.6081 119.167 40.5273 118.711 39.2773C118.255 38.0273 118.027 36.6602 118.027 35.1758V34.3555C118.027 32.6367 118.281 31.1068 118.789 29.7656C119.297 28.4115 119.987 27.2656 120.859 26.3281C121.732 25.3906 122.721 24.681 123.828 24.1992C124.935 23.7174 126.081 23.4766 127.266 23.4766C128.776 23.4766 130.078 23.737 131.172 24.2578C132.279 24.7786 133.184 25.5078 133.887 26.4453C134.59 27.3698 135.111 28.4635 135.449 29.7266C135.788 30.9766 135.957 32.3438 135.957 33.8281V35.4492H120.176V32.5H132.344V32.2266C132.292 31.2891 132.096 30.3776 131.758 29.4922C131.432 28.6068 130.911 27.8776 130.195 27.3047C129.479 26.7318 128.503 26.4453 127.266 26.4453C126.445 26.4453 125.69 26.6211 125 26.9727C124.31 27.3112 123.717 27.819 123.223 28.4961C122.728 29.1732 122.344 30 122.07 30.9766C121.797 31.9531 121.66 33.0794 121.66 34.3555V35.1758C121.66 36.1784 121.797 37.1224 122.07 38.0078C122.357 38.8802 122.767 39.6484 123.301 40.3125C123.848 40.9766 124.505 41.4974 125.273 41.875C126.055 42.2526 126.94 42.4414 127.93 42.4414C129.206 42.4414 130.286 42.181 131.172 41.6602C132.057 41.1393 132.832 40.4427 133.496 39.5703L135.684 41.3086C135.228 41.9987 134.648 42.6562 133.945 43.2812C133.242 43.9062 132.376 44.4141 131.348 44.8047C130.332 45.1953 129.128 45.3906 127.734 45.3906ZM143.789 28.3789V45H140.176V23.8672H143.594L143.789 28.3789ZM142.93 33.6328L141.426 33.5742C141.439 32.1289 141.654 30.7943 142.07 29.5703C142.487 28.3333 143.073 27.2591 143.828 26.3477C144.583 25.4362 145.482 24.7331 146.523 24.2383C147.578 23.7305 148.743 23.4766 150.02 23.4766C151.061 23.4766 151.999 23.6198 152.832 23.9062C153.665 24.1797 154.375 24.6224 154.961 25.2344C155.56 25.8464 156.016 26.6406 156.328 27.6172C156.641 28.5807 156.797 29.7591 156.797 31.1523V45H153.164V31.1133C153.164 30.0065 153.001 29.1211 152.676 28.457C152.35 27.7799 151.875 27.2917 151.25 26.9922C150.625 26.6797 149.857 26.5234 148.945 26.5234C148.047 26.5234 147.227 26.7122 146.484 27.0898C145.755 27.4674 145.124 27.9883 144.59 28.6523C144.069 29.3164 143.659 30.0781 143.359 30.9375C143.073 31.7839 142.93 32.6823 142.93 33.6328ZM175.605 40.8984V15H179.238V45H175.918L175.605 40.8984ZM161.387 34.668V34.2578C161.387 32.6432 161.582 31.1784 161.973 29.8633C162.376 28.5352 162.943 27.3958 163.672 26.4453C164.414 25.4948 165.293 24.7656 166.309 24.2578C167.337 23.737 168.483 23.4766 169.746 23.4766C171.074 23.4766 172.233 23.7109 173.223 24.1797C174.225 24.6354 175.072 25.306 175.762 26.1914C176.465 27.0638 177.018 28.1185 177.422 29.3555C177.826 30.5924 178.105 31.9922 178.262 33.5547V35.3516C178.118 36.901 177.839 38.2943 177.422 39.5312C177.018 40.7682 176.465 41.8229 175.762 42.6953C175.072 43.5677 174.225 44.2383 173.223 44.707C172.22 45.1628 171.048 45.3906 169.707 45.3906C168.47 45.3906 167.337 45.1237 166.309 44.5898C165.293 44.056 164.414 43.3073 163.672 42.3438C162.943 41.3802 162.376 40.2474 161.973 38.9453C161.582 37.6302 161.387 36.2044 161.387 34.668ZM165.02 34.2578V34.668C165.02 35.7227 165.124 36.7122 165.332 37.6367C165.553 38.5612 165.892 39.375 166.348 40.0781C166.803 40.7812 167.383 41.3346 168.086 41.7383C168.789 42.1289 169.629 42.3242 170.605 42.3242C171.803 42.3242 172.786 42.0703 173.555 41.5625C174.336 41.0547 174.961 40.3841 175.43 39.5508C175.898 38.7174 176.263 37.8125 176.523 36.8359V32.1289C176.367 31.4128 176.139 30.7227 175.84 30.0586C175.553 29.3815 175.176 28.7826 174.707 28.2617C174.251 27.7279 173.685 27.3047 173.008 26.9922C172.344 26.6797 171.556 26.5234 170.645 26.5234C169.655 26.5234 168.802 26.7318 168.086 27.1484C167.383 27.5521 166.803 28.112 166.348 28.8281C165.892 29.5312 165.553 30.3516 165.332 31.2891C165.124 32.2135 165.02 33.2031 165.02 34.2578Z" fill="black"/>
<path d="M192.891 36.4062L198.535 16.5625H201.27L199.688 24.2773L193.613 45H190.898L192.891 36.4062ZM187.051 16.5625L191.543 36.0156L192.891 45H190.195L183.301 16.5625H187.051ZM208.574 35.9961L212.969 16.5625H216.738L209.863 45H207.168L208.574 35.9961ZM201.68 16.5625L207.168 36.4062L209.16 45H206.445L200.586 24.2773L198.984 16.5625H201.68ZM224.297 23.8672V45H220.664V23.8672H224.297ZM220.391 18.2617C220.391 17.6758 220.566 17.181 220.918 16.7773C221.283 16.3737 221.816 16.1719 222.52 16.1719C223.21 16.1719 223.737 16.3737 224.102 16.7773C224.479 17.181 224.668 17.6758 224.668 18.2617C224.668 18.8216 224.479 19.3034 224.102 19.707C223.737 20.0977 223.21 20.293 222.52 20.293C221.816 20.293 221.283 20.0977 220.918 19.707C220.566 19.3034 220.391 18.8216 220.391 18.2617ZM242.402 39.3945C242.402 38.8737 242.285 38.3919 242.051 37.9492C241.829 37.4935 241.367 37.0833 240.664 36.7188C239.974 36.3411 238.932 36.0156 237.539 35.7422C236.367 35.4948 235.306 35.2018 234.355 34.8633C233.418 34.5247 232.617 34.1146 231.953 33.6328C231.302 33.151 230.801 32.5846 230.449 31.9336C230.098 31.2826 229.922 30.5208 229.922 29.6484C229.922 28.8151 230.104 28.0273 230.469 27.2852C230.846 26.543 231.374 25.8854 232.051 25.3125C232.741 24.7396 233.568 24.2904 234.531 23.9648C235.495 23.6393 236.569 23.4766 237.754 23.4766C239.447 23.4766 240.892 23.776 242.09 24.375C243.288 24.974 244.206 25.7747 244.844 26.7773C245.482 27.7669 245.801 28.8672 245.801 30.0781H242.188C242.188 29.4922 242.012 28.9258 241.66 28.3789C241.322 27.819 240.82 27.3568 240.156 26.9922C239.505 26.6276 238.704 26.4453 237.754 26.4453C236.751 26.4453 235.938 26.6016 235.312 26.9141C234.701 27.2135 234.251 27.5977 233.965 28.0664C233.691 28.5352 233.555 29.0299 233.555 29.5508C233.555 29.9414 233.62 30.293 233.75 30.6055C233.893 30.9049 234.141 31.1849 234.492 31.4453C234.844 31.6927 235.339 31.9271 235.977 32.1484C236.615 32.3698 237.428 32.5911 238.418 32.8125C240.15 33.2031 241.576 33.6719 242.695 34.2188C243.815 34.7656 244.648 35.4362 245.195 36.2305C245.742 37.0247 246.016 37.9883 246.016 39.1211C246.016 40.0456 245.82 40.8919 245.43 41.6602C245.052 42.4284 244.499 43.0924 243.77 43.6523C243.053 44.1992 242.194 44.6289 241.191 44.9414C240.202 45.2409 239.089 45.3906 237.852 45.3906C235.99 45.3906 234.414 45.0586 233.125 44.3945C231.836 43.7305 230.859 42.8711 230.195 41.8164C229.531 40.7617 229.199 39.6484 229.199 38.4766H232.832C232.884 39.4661 233.171 40.2539 233.691 40.8398C234.212 41.4128 234.85 41.8229 235.605 42.0703C236.361 42.3047 237.109 42.4219 237.852 42.4219C238.841 42.4219 239.668 42.2917 240.332 42.0312C241.009 41.7708 241.523 41.4128 241.875 40.957C242.227 40.5013 242.402 39.9805 242.402 39.3945ZM259.531 45.3906C258.06 45.3906 256.725 45.1432 255.527 44.6484C254.342 44.1406 253.32 43.431 252.461 42.5195C251.615 41.6081 250.964 40.5273 250.508 39.2773C250.052 38.0273 249.824 36.6602 249.824 35.1758V34.3555C249.824 32.6367 250.078 31.1068 250.586 29.7656C251.094 28.4115 251.784 27.2656 252.656 26.3281C253.529 25.3906 254.518 24.681 255.625 24.1992C256.732 23.7174 257.878 23.4766 259.062 23.4766C260.573 23.4766 261.875 23.737 262.969 24.2578C264.076 24.7786 264.98 25.5078 265.684 26.4453C266.387 27.3698 266.908 28.4635 267.246 29.7266C267.585 30.9766 267.754 32.3438 267.754 33.8281V35.4492H251.973V32.5H264.141V32.2266C264.089 31.2891 263.893 30.3776 263.555 29.4922C263.229 28.6068 262.708 27.8776 261.992 27.3047C261.276 26.7318 260.299 26.4453 259.062 26.4453C258.242 26.4453 257.487 26.6211 256.797 26.9727C256.107 27.3112 255.514 27.819 255.02 28.4961C254.525 29.1732 254.141 30 253.867 30.9766C253.594 31.9531 253.457 33.0794 253.457 34.3555V35.1758C253.457 36.1784 253.594 37.1224 253.867 38.0078C254.154 38.8802 254.564 39.6484 255.098 40.3125C255.645 40.9766 256.302 41.4974 257.07 41.875C257.852 42.2526 258.737 42.4414 259.727 42.4414C261.003 42.4414 262.083 42.181 262.969 41.6602C263.854 41.1393 264.629 40.4427 265.293 39.5703L267.48 41.3086C267.025 41.9987 266.445 42.6562 265.742 43.2812C265.039 43.9062 264.173 44.4141 263.145 44.8047C262.129 45.1953 260.924 45.3906 259.531 45.3906Z" fill="#2D5871"/>
<defs>
<clipPath id="clip0_57_1929">
<rect width="49.9115" height="55" fill="white"/>
</clipPath>
</defs>
</svg>
