<svg width="44" height="44" viewBox="0 0 44 44" fill="none" xmlns="http://www.w3.org/2000/svg">
<rect x="0.000167847" y="0.0717163" width="43.2" height="43.2" rx="9.6" fill="#F5F5F5"/>
<path d="M25.2326 12.9133V12.9094H26.2454L26.6155 12.9833C26.8622 13.0313 27.0862 13.0942 27.2874 13.172C27.4887 13.2498 27.6835 13.3406 27.8717 13.4443C28.06 13.548 28.2308 13.6537 28.384 13.7613C28.5359 13.8677 28.6722 13.9805 28.793 14.0998C28.9124 14.2204 29.0988 14.2515 29.352 14.1931C29.6052 14.1348 29.8779 14.0537 30.17 13.95C30.4622 13.8463 30.7511 13.7296 31.0367 13.5999C31.3224 13.4702 31.4964 13.3879 31.5587 13.3529C31.6198 13.3166 31.6522 13.2971 31.6561 13.2945L31.66 13.2887L31.6795 13.279L31.699 13.2693L31.7184 13.2595L31.7379 13.2498L31.7418 13.244L31.7476 13.2401L31.7535 13.2362L31.7574 13.2304L31.7769 13.2245L31.7963 13.2206L31.7925 13.2498L31.7866 13.279L31.7769 13.3082L31.7671 13.3373L31.7574 13.3568L31.7476 13.3762L31.7379 13.4054C31.7314 13.4249 31.7249 13.4508 31.7184 13.4832C31.7119 13.5156 31.6503 13.6453 31.5334 13.8722C31.4165 14.0991 31.2705 14.3293 31.0952 14.5627C30.9199 14.7961 30.7628 14.9724 30.6238 15.0917C30.4836 15.2123 30.3908 15.2966 30.3453 15.3446C30.2999 15.3938 30.2447 15.4392 30.1797 15.4807L30.0824 15.5449L30.0629 15.5546L30.0434 15.5644L30.0395 15.5702L30.0337 15.5741L30.0278 15.578L30.0239 15.5838L30.0045 15.5935L29.985 15.6033L29.9811 15.6091L29.9752 15.613L29.9694 15.6169L29.9655 15.6227L29.9616 15.6285L29.9558 15.6324L29.9499 15.6363L29.946 15.6422H30.0434L30.5888 15.5255C30.9523 15.4477 31.2997 15.3537 31.6308 15.2434L32.1567 15.0684L32.2151 15.0489L32.2443 15.0392L32.2638 15.0295L32.2833 15.0198L32.3027 15.01L32.3222 15.0003L32.3612 14.9945L32.4001 14.9906V15.0295L32.3904 15.0334L32.3806 15.0392L32.3768 15.045L32.3709 15.0489L32.3651 15.0528L32.3612 15.0587L32.3573 15.0645L32.3514 15.0684L32.3456 15.0723L32.3417 15.0781L32.3378 15.0839L32.332 15.0878L32.3222 15.1073L32.3125 15.1267L32.3066 15.1306C32.304 15.1345 32.2216 15.2447 32.0593 15.4613C31.897 15.6791 31.8093 15.7893 31.7963 15.7919C31.7834 15.7958 31.7652 15.8153 31.7418 15.8503C31.7197 15.8866 31.5821 16.0312 31.3289 16.284C31.0757 16.5369 30.8277 16.7618 30.5849 16.9589C30.3408 17.1573 30.2174 17.4011 30.2148 17.6903C30.2109 17.9781 30.196 18.3036 30.17 18.6667C30.144 19.0297 30.0954 19.422 30.0239 19.8434C29.9525 20.2648 29.8422 20.7413 29.6928 21.273C29.5435 21.8046 29.3617 22.3233 29.1475 22.829C28.9332 23.3347 28.7092 23.7885 28.4755 24.1905C28.2418 24.5925 28.0275 24.9328 27.8328 25.2116C27.638 25.4904 27.44 25.753 27.2387 25.9993C27.0375 26.2457 26.783 26.5232 26.4752 26.8318C26.1662 27.1391 25.9974 27.3077 25.9688 27.3375C25.939 27.366 25.8117 27.4724 25.5871 27.6565C25.3637 27.8419 25.1235 28.0273 24.8664 28.2128C24.6106 28.3969 24.3756 28.5505 24.1614 28.6737C23.9471 28.7969 23.6887 28.9376 23.3862 29.0958C23.0849 29.2553 22.759 29.4031 22.4084 29.5392C22.0578 29.6754 21.6878 29.8018 21.2982 29.9185C20.9087 30.0352 20.5321 30.126 20.1686 30.1908C19.805 30.2557 19.3927 30.3108 18.9318 30.3562L18.2403 30.4242V30.434H16.9743V30.4242L16.8088 30.4145C16.6984 30.408 16.6075 30.4015 16.5361 30.3951C16.4647 30.3886 16.1953 30.3529 15.7278 30.2881C15.2604 30.2233 14.8935 30.1584 14.6274 30.0936C14.3612 30.0287 13.9651 29.9056 13.4393 29.724C12.9134 29.5425 12.4635 29.359 12.0895 29.1736C11.7168 28.9895 11.4831 28.8728 11.3883 28.8235C11.2948 28.7755 11.1897 28.7159 11.0728 28.6445L10.8975 28.5376L10.8936 28.5317L10.8878 28.5278L10.8819 28.524L10.878 28.5181L10.8586 28.5084L10.8391 28.4987L10.8352 28.4928L10.8293 28.4889L10.8235 28.4851L10.8196 28.4792L10.8157 28.4734L10.8099 28.4695H10.8001V28.4306L10.8196 28.4345L10.8391 28.4403L10.9267 28.45C10.9852 28.4565 11.1442 28.4662 11.4039 28.4792C11.6636 28.4922 11.9395 28.4922 12.2317 28.4792C12.5238 28.4662 12.8225 28.4371 13.1276 28.3917C13.4328 28.3463 13.7931 28.2685 14.2086 28.1583C14.6241 28.0481 15.0059 27.9171 15.3539 27.7654C15.7006 27.6124 15.9473 27.4983 16.094 27.4231C16.2394 27.3492 16.4614 27.2117 16.7601 27.0107L17.2081 26.7093L17.212 26.7034L17.2178 26.6995L17.2237 26.6956L17.2275 26.6898L17.2314 26.684L17.2373 26.6801L17.2431 26.6762L17.247 26.6704L17.2665 26.6645L17.286 26.6606L17.2899 26.6412L17.2957 26.6217L17.3016 26.6178L17.3054 26.612L17.1496 26.6023C17.0458 26.5958 16.9451 26.5893 16.8477 26.5828C16.7504 26.5764 16.5978 26.5472 16.39 26.4953C16.1823 26.4434 15.9583 26.3656 15.7181 26.2619C15.4779 26.1582 15.2441 26.035 15.0169 25.8924C14.7897 25.7497 14.6254 25.6311 14.5241 25.5364C14.4242 25.443 14.2943 25.3108 14.1346 25.1396C13.9762 24.9672 13.8385 24.7902 13.7217 24.6087C13.6048 24.4271 13.4932 24.2177 13.3867 23.9804L13.225 23.6264L13.2153 23.5972L13.2055 23.5681L13.1997 23.5486L13.1958 23.5292L13.225 23.5331L13.2542 23.5389L13.4685 23.5681C13.6113 23.5875 13.8353 23.594 14.1404 23.5875C14.4456 23.581 14.6566 23.5681 14.7734 23.5486C14.8903 23.5292 14.9617 23.5162 14.9877 23.5097L15.0266 23.5L15.0753 23.4903L15.124 23.4805L15.1279 23.4747L15.1338 23.4708L15.1396 23.4669L15.1435 23.4611L15.1045 23.4514L15.0656 23.4416L15.0266 23.4319L14.9877 23.4222L14.9487 23.4125C14.9228 23.406 14.8773 23.393 14.8124 23.3736C14.7475 23.3541 14.5722 23.2828 14.2865 23.1596C14.0009 23.0364 13.7736 22.9165 13.6048 22.7998C13.4356 22.6828 13.2742 22.5548 13.1218 22.4166C12.9699 22.2766 12.803 22.0963 12.6212 21.8759C12.4394 21.6555 12.2771 21.3994 12.1343 21.1076C11.9915 20.8159 11.8844 20.5371 11.8129 20.2713C11.7418 20.007 11.6949 19.7369 11.6727 19.4641L11.6376 19.0557L11.6571 19.0595L11.6766 19.0654L11.6961 19.0751L11.7155 19.0848L11.735 19.0946L11.7545 19.1043L12.0564 19.2404C12.2577 19.3312 12.5076 19.409 12.8063 19.4738C13.1049 19.5387 13.2834 19.5743 13.3419 19.5808L13.4295 19.5905H13.6048L13.6009 19.5847L13.5951 19.5808L13.5892 19.5769L13.5853 19.5711L13.5815 19.5652L13.5756 19.5614L13.5698 19.5575L13.5659 19.5516L13.5464 19.5419L13.5269 19.5322L13.523 19.5263L13.5172 19.5225L13.5113 19.5186L13.5074 19.5127L13.488 19.503L13.4685 19.4933L13.4646 19.4874C13.4607 19.4848 13.4049 19.4434 13.2971 19.363C13.1906 19.2813 13.0789 19.1756 12.9621 19.0459C12.8452 18.9163 12.7283 18.7801 12.6115 18.6375C12.4944 18.4945 12.3901 18.3416 12.2999 18.1804C12.209 18.0183 12.1129 17.8121 12.0116 17.5619C11.9116 17.3129 11.8357 17.062 11.7837 16.8092C11.7318 16.5563 11.7026 16.3067 11.6961 16.0603C11.6896 15.814 11.6961 15.6033 11.7155 15.4282C11.735 15.2532 11.774 15.0554 11.8324 14.835C11.8908 14.6146 11.9753 14.3812 12.0856 14.1348L12.2512 13.7652L12.2609 13.7361L12.2706 13.7069L12.2765 13.703L12.2804 13.6972L12.2843 13.6913L12.2901 13.6874L12.296 13.6913L12.2999 13.6972L12.3037 13.703L12.3096 13.7069L12.3155 13.7108L12.3193 13.7166L12.3232 13.7224L12.3291 13.7263L12.3388 13.7458L12.3485 13.7652L12.3544 13.7691L12.3583 13.775L12.6212 14.0667C12.7965 14.2612 13.0043 14.4784 13.2445 14.7183C13.4847 14.9582 13.6178 15.0826 13.6438 15.0917C13.6698 15.1021 13.7022 15.1319 13.7412 15.1812C13.7801 15.2292 13.91 15.3439 14.1307 15.5255C14.3514 15.707 14.6403 15.9177 14.9974 16.1576C15.3545 16.3975 15.7505 16.6341 16.1855 16.8675C16.6205 17.1009 17.088 17.3116 17.5879 17.4996C18.0878 17.6877 18.4384 17.8108 18.6396 17.8692C18.8409 17.9275 19.185 18.0021 19.6719 18.0929C20.1588 18.1836 20.5257 18.242 20.7724 18.2679C21.0191 18.2939 21.1879 18.3088 21.2788 18.3127L21.4151 18.3165L21.4112 18.2874L21.4054 18.2582L21.3664 18.0151C21.3404 17.853 21.3274 17.6261 21.3274 17.3343C21.3274 17.0426 21.3502 16.7735 21.3956 16.5271C21.4411 16.2808 21.5092 16.0312 21.6001 15.7783C21.691 15.5255 21.78 15.3225 21.867 15.1695C21.9553 15.0178 22.0708 14.8447 22.2137 14.6502C22.3565 14.4557 22.5415 14.2547 22.7687 14.0473C22.996 13.8398 23.2557 13.655 23.5478 13.4929C23.84 13.3308 24.1094 13.2077 24.3561 13.1234C24.6028 13.0391 24.8106 12.984 24.9794 12.958C25.1482 12.9321 25.2326 12.9172 25.2326 12.9133Z" fill="#0A2430"/>
</svg>
